# File created by Blade
# Date/Time:  Wed Apr 08 14:10:35 2015
# Frame Rate: 120.000 fps
#------------------------------------------------------
:FULLY-SPECIFIED
:DEGREES
936
root 1.367362 32.954358 14.398366 9.982920 2.651483 -1.983305
Spine -14.315554 -6.853910 1.549706
Head 12.184546 -2.969152 -0.627210
LeftShoulder -22.608682 42.198368 18.579274
LeftArm 59.697777 -56.942180 -62.171583
LeftForeArm 10.624847 0.000000 -2.273073
LeftHand 2.017014 0.000000 3.672407
LeftHandThumb1 -26.253704 0.000000 33.147579
RightShoulder -7.511562 2.400735 -30.887346
RightArm 12.697577 14.401515 40.196110
RightForeArm -15.618277 -0.000000 1.514320
RightHand 1.254343 -0.000000 0.520989
RightHandThumb1 -24.326973 -0.000000 -32.862282
LeftUpLeg -4.664394 -7.447796 2.077610
LeftLeg -2.357610 -0.000000 0.000000
LeftFoot -6.925858 7.810574 -17.529605
LeftToeBase -6.262319 -0.000000 0.000000
RightUpLeg -3.847835 5.422771 4.442440
RightLeg -2.873800 -0.000000 0.000000
RightFoot -6.140426 -15.598572 5.921153
RightToeBase -3.742723 -0.000000 0.000000
937
root 1.364911 32.954250 14.393402 9.977753 2.634377 -1.984468
Spine -14.294109 -6.859601 1.535069
Head 12.168352 -2.978128 -0.601343
LeftShoulder -22.582825 42.166670 18.610440
LeftArm 59.644774 -56.910151 -62.152015
LeftForeArm 10.547332 -0.000000 -2.272728
LeftHand 1.922372 -0.000000 3.563141
LeftHandThumb1 -26.253704 0.000000 33.147579
RightShoulder -7.499174 2.346924 -30.866432
RightArm 12.743792 14.414055 40.210412
RightForeArm -15.563715 -0.000000 1.506770
RightHand 1.255121 -0.000000 0.545279
RightHandThumb1 -24.326973 -0.000000 -32.862282
LeftUpLeg -4.667840 -7.443547 2.079255
LeftLeg -2.355348 -0.000000 0.000000
LeftFoot -6.923151 7.829714 -17.499901
LeftToeBase -6.246412 -0.000000 0.000000
RightUpLeg -3.860031 5.387238 4.449065
RightLeg -2.857173 -0.000000 0.000000
RightFoot -6.145228 -15.547891 5.929148
RightToeBase -3.733359 -0.000000 0.000000
938
root 1.364207 32.954082 14.388741 9.967683 2.615028 -1.974212
Spine -14.266769 -6.856009 1.508561
Head 12.152320 -2.990651 -0.576995
LeftShoulder -22.584769 42.193990 18.606031
LeftArm 59.719728 -56.903551 -62.240067
LeftForeArm 10.577061 0.000000 -2.278785
LeftHand 1.987984 -0.000000 3.529964
LeftHandThumb1 -26.253704 0.000000 33.147579
RightShoulder -7.489281 2.354912 -30.862844
RightArm 12.738473 14.393393 40.227895
RightForeArm -15.574159 -0.000000 1.506611
RightHand 1.211883 0.000000 0.509771
RightHandThumb1 -24.326973 -0.000000 -32.862282
LeftUpLeg -4.670612 -7.416923 2.062716
LeftLeg -2.341451 -0.000000 0.000000
LeftFoot -6.922402 7.828343 -17.486746
LeftToeBase -6.258359 -0.000000 0.000000
RightUpLeg -3.848650 5.382878 4.438055
RightLeg -2.876578 -0.000000 0.000000
RightFoot -6.136965 -15.525230 5.927231
RightToeBase -3.739466 -0.000000 0.000000
939
root 1.362078 32.953956 14.383935 9.958499 2.601982 -1.968907
Spine -14.244070 -6.861737 1.492047
Head 12.156501 -2.976081 -0.583201
LeftShoulder -22.600850 42.222578 18.597059
LeftArm 59.642966 -56.817728 -62.132768
LeftForeArm 10.485510 -0.000000 -2.290437
LeftHand 2.066134 -0.000000 3.422093
LeftHandThumb1 -26.253704 0.000000 33.147579
RightShoulder -7.491440 2.379378 -30.865851
RightArm 12.752287 14.367827 40.249834
RightForeArm -15.552647 0.000000 1.492138
RightHand 1.205267 0.000000 0.488219
RightHandThumb1 -24.326973 -0.000000 -32.862282
LeftUpLeg -4.667519 -7.441895 2.060563
LeftLeg -2.343817 -0.000000 0.000000
LeftFoot -6.926839 7.830108 -17.478039
LeftToeBase -6.169029 -0.000000 0.000000
RightUpLeg -3.840811 5.383847 4.431844
RightLeg -2.889372 -0.000000 0.000000
RightFoot -6.132609 -15.509098 5.933998
RightToeBase -3.732595 -0.000000 0.000000
940
root 1.360216 32.953304 14.378515 9.951630 2.578715 -1.959993
Spine -14.220156 -6.857233 1.467265
Head 12.154606 -2.975566 -0.572569
LeftShoulder -22.598052 42.234552 18.608931
LeftArm 59.679537 -56.783010 -62.175364
LeftForeArm 10.490278 -0.000000 -2.322620
LeftHand 2.099027 -0.000000 3.527772
LeftHandThumb1 -26.253704 0.000000 33.147579
RightShoulder -7.481491 2.405117 -30.876351
RightArm 12.739280 14.414933 40.288520
RightForeArm -15.599600 0.000000 1.493129
RightHand 1.221248 -0.000000 0.477403
RightHandThumb1 -24.326973 -0.000000 -32.862282
LeftUpLeg -4.665360 -7.459076 2.053019
LeftLeg -2.347557 -0.000000 0.000000
LeftFoot -6.944545 7.915335 -17.491007
LeftToeBase -6.264491 -0.000000 0.000000
RightUpLeg -3.855541 5.340288 4.426386
RightLeg -2.863460 -0.000000 0.000000
RightFoot -6.154389 -15.441987 5.930922
RightToeBase -3.735207 -0.000000 0.000000
941
root 1.358526 32.952912 14.373856 9.946081 2.566391 -1.951342
Spine -14.201300 -6.857019 1.447622
Head 12.161895 -2.978300 -0.574562
LeftShoulder -22.571446 42.244058 18.626079
LeftArm 59.605697 -56.732978 -62.089756
LeftForeArm 10.450738 -0.000000 -2.350020
LeftHand 2.040487 -0.000000 3.515292
LeftHandThumb1 -26.253704 0.000000 33.147579
RightShoulder -7.487819 2.441176 -30.892564
RightArm 12.733218 14.429029 40.320639
RightForeArm -15.650274 0.000000 1.492139
RightHand 1.209805 -0.000000 0.478659
RightHandThumb1 -24.326973 -0.000000 -32.862282
LeftUpLeg -4.667435 -7.451423 2.043815
LeftLeg -2.346665 -0.000000 0.000000
LeftFoot -6.937238 7.924428 -17.501345
LeftToeBase -6.333411 -0.000000 0.000000
RightUpLeg -3.854381 5.325837 4.418437
RightLeg -2.868032 -0.000000 0.000000
RightFoot -6.153596 -15.400443 5.950446
RightToeBase -3.736184 -0.000000 0.000000
942
root 1.356474 32.952296 14.367934 9.937466 2.537780 -1.946143
Spine -14.171640 -6.856554 1.427967
Head 12.149833 -2.973343 -0.564223
LeftShoulder -22.568362 42.247531 18.631135
LeftArm 59.587713 -56.706108 -62.072317
LeftForeArm 10.465823 0.000000 -2.368893
LeftHand 1.974424 0.000000 3.498806
LeftHandThumb1 -26.253704 0.000000 33.147579
RightShoulder -7.504207 2.437780 -30.881679
RightArm 12.803892 14.447519 40.337413
RightForeArm -15.646008 -0.000000 1.452408
RightHand 1.231880 -0.000000 0.438663
RightHandThumb1 -24.326973 -0.000000 -32.862282
LeftUpLeg -4.669759 -7.431537 2.034681
LeftLeg -2.336873 -0.000000 0.000000
LeftFoot -6.948574 7.936832 -17.481462
LeftToeBase -6.239938 -0.000000 0.000000
RightUpLeg -3.849082 5.353862 4.409882
RightLeg -2.880185 -0.000000 0.000000
RightFoot -6.153714 -15.400877 5.962639
RightToeBase -3.742548 -0.000000 0.000000
943
root 1.354229 32.952159 14.362336 9.936854 2.511899 -1.931929
Spine -14.150005 -6.838613 1.394502
Head 12.140613 -2.974689 -0.551801
LeftShoulder -22.535084 42.234140 18.667321
LeftArm 59.567760 -56.676464 -62.058429
LeftForeArm 10.479363 -0.000000 -2.410970
LeftHand 2.083297 -0.000000 3.449205
LeftHandThumb1 -26.253704 0.000000 33.147579
RightShoulder -7.503345 2.522445 -30.905699
RightArm 12.733971 14.395123 40.345106
RightForeArm -15.623604 -0.000000 1.461444
RightHand 1.229942 -0.000000 0.410854
RightHandThumb1 -24.326973 -0.000000 -32.862282
LeftUpLeg -4.677162 -7.425224 2.020912
LeftLeg -2.337401 -0.000000 0.000000
LeftFoot -6.946879 7.967623 -17.489014
LeftToeBase -6.343710 -0.000000 0.000000
RightUpLeg -3.858138 5.366197 4.394892
RightLeg -2.880435 -0.000000 0.000000
RightFoot -6.172323 -15.390827 5.991427
RightToeBase -3.735860 -0.000000 0.000000
944
root 1.351843 32.951295 14.357511 9.919772 2.485362 -1.918167
Spine -14.114808 -6.851790 1.367292
Head 12.146917 -2.961792 -0.549478
LeftShoulder -22.548501 42.251398 18.655351
LeftArm 59.611502 -56.681979 -62.096521
LeftForeArm 10.501468 -0.000000 -2.436177
LeftHand 2.080056 0.000000 3.464404
LeftHandThumb1 -26.253704 0.000000 33.147579
RightShoulder -7.486537 2.527594 -30.911641
RightArm 12.756223 14.401834 40.361760
RightForeArm -15.621984 -0.000000 1.451445
RightHand 1.235579 -0.000000 0.409953
RightHandThumb1 -24.326973 -0.000000 -32.862282
LeftUpLeg -4.661274 -7.432863 2.006202
LeftLeg -2.343459 -0.000000 0.000000
LeftFoot -6.953432 7.995443 -17.455825
LeftToeBase -6.279255 -0.000000 0.000000
RightUpLeg -3.854385 5.348812 4.384919
RightLeg -2.867953 -0.000000 0.000000
RightFoot -6.184481 -15.356032 5.980134
RightToeBase -3.727847 -0.000000 0.000000
